# xmcd
#
# Track frame offsets: 
#        150
#        23805
#        39207
#        66882
#        88780
#        108212
#        124922
#        143977
#        168712
#        187465
#        212260
#        227947
#
# Disc length: 3235 seconds
#
# Revision: 5
# Processed by: cddbd v1.5.2PL0 Copyright (c) Steve Scherf et al.
# Submitted via: ExactAudioCopyFreeDBPlugin 1.0
#
DISCID=ab0ca10c
DTITLE=Cephas and Wiggins - From Richmond To Atlanta
DYEAR=2000
DGENRE=Blues
TTITLE0=Dog Days Of August
TTITLE1=No Lovin' Baby Now
TTITLE2=Brownsville
TTITLE3=Roberta
TTITLE4=Black Cat On The Line
TTITLE5=Police Dog Blues
TTITLE6=I Saw The Light
TTITLE7=Cherryball
TTITLE8=The Backbiter
TTITLE9=Richmond Blues
TTITLE10=Evil Twin Blues
TTITLE11=Blue Day Blues
EXTD=
EXTT0=
EXTT1=
EXTT2=
EXTT3=
EXTT4=
EXTT5=
EXTT6=
EXTT7=
EXTT8=
EXTT9=
EXTT10=
EXTT11=
PLAYORDER=
